<svg xmlns="http://www.w3.org/2000/svg" width="800" height="800" viewBox="0 0 800 800" xml:space="preserve"><path fill="#103B9B" d="M24.807 325.882h121.568v148.236H24.807z"/><path fill="#103B9B" d="M25.807 326.882h119.568v146.236H25.807zm386.959 147.236V325.882h219.492c6.563 0 11.903-5.34 11.903-11.903v-1h27.807v1c0 6.563 5.34 11.903 11.903 11.903h91.322v148.236z"/><path fill="#103B9B" d="M632.258 326.882H413.766v146.236h360.428V326.882h-90.322c-7.128 0-12.903-5.777-12.903-12.903h-25.807c-.001 7.125-5.776 12.903-12.904 12.903"/><path fill="#ED1F34" d="m291.468 245.371.002-19.292 1.17.203c18.787 3.25 35.605 13.326 47.357 28.37l.694.889-16.192 9.78z"/><path fill="#ED1F34" d="m292.47 227.267-.002 17.54 32.031 19.345 14.71-8.884a75.7 75.7 0 0 0-46.739-28.001m-74.022 28.275.694-.889c11.747-15.041 28.563-25.117 47.351-28.371l1.171-.203-.001 19.292-33.026 19.949z"/><path fill="#ED1F34" d="m219.93 255.269 14.706 8.883 32.026-19.345.001-17.54a75.7 75.7 0 0 0-46.733 28.002"/><path fill="#ED1F34" d="M644.161 314.979v-1c0-6.563-5.34-11.903-11.903-11.903H367.893l13.011-46.799a11.84 11.84 0 0 0-4.271-12.668 11.8 11.8 0 0 0-7.195-2.421c-2.169 0-4.298.592-6.156 1.714l-2.097 1.265-.541-.737c-16.214-22.126-41.108-36.813-68.297-40.292l-.873-.112v-6.594c0-3.18-1.237-6.169-3.485-8.418a11.82 11.82 0 0 0-8.416-3.487c-6.564 0-11.905 5.339-11.905 11.902v6.597l-.873.112c-27.19 3.481-52.084 18.167-68.297 40.292l-.541.737-2.097-1.265a11.9 11.9 0 0 0-6.152-1.715c-2.584 0-5.141.86-7.199 2.422a11.84 11.84 0 0 0-4.271 12.668l13.01 46.799H24.807V153.839h750.387v148.236h-91.322c-6.563 0-11.903 5.34-11.903 11.903v1z"/><path fill="#ED1F34" d="M158.278 301.075h31.652l-12.657-45.531a12.902 12.902 0 0 1 19.102-14.499l1.314.793a101.54 101.54 0 0 1 68.977-40.693v-5.717c0-7.126 5.777-12.902 12.903-12.902h.002c7.126 0 12.903 5.779 12.901 12.905v5.713a101.53 101.53 0 0 1 68.977 40.693l1.314-.793a12.904 12.904 0 0 1 19.103 14.499l-12.658 45.531h263.049c7.128 0 12.903 5.777 12.903 12.903h25.807c0-7.126 5.775-12.903 12.903-12.903h90.322V154.839H25.807v146.236z"/><path fill="#FFF" d="M412.822 498.925c-7.778 66.647-64.552 118.55-133.252 118.55s-125.474-51.902-133.254-118.55H25.807v146.236h748.387V498.925z"/><path d="M787.097 129.032H12.903C5.777 129.032 0 134.81 0 141.936v516.129c0 7.126 5.777 12.903 12.903 12.903h774.193c7.128 0 12.903-5.777 12.903-12.903V141.936c.001-7.126-5.774-12.904-12.902-12.904m-12.904 25.807v146.236h-90.322c-7.128 0-12.903 5.777-12.903 12.903s5.775 12.903 12.903 12.903h90.322v146.236H413.766V326.882h218.492c7.128 0 12.903-5.777 12.903-12.903s-5.775-12.903-12.903-12.903H369.21l12.657-45.531a12.904 12.904 0 0 0-19.103-14.499l-1.314.793-22.24 13.432-14.709 8.884-32.031-19.345-6.233-3.764a12.91 12.91 0 0 0-13.342 0l-6.231 3.764-32.026 19.345-14.706-8.883-22.24-13.433-1.314-.793a12.905 12.905 0 0 0-14.473.767 12.9 12.9 0 0 0-4.629 13.732l12.655 45.531H25.807V154.839zM279.57 591.668c-59.766 0-108.389-48.623-108.389-108.389V326.882h216.78v156.396c-.002 59.767-48.625 108.39-108.391 108.39m-68.735-311.742 17.128 10.347a12.9 12.9 0 0 0 13.342 0l38.257-23.108 38.264 23.108a12.9 12.9 0 0 0 13.342 0l17.134-10.348-5.879 21.151H216.716zm-65.46 193.192H25.807V326.882h119.568zM25.807 645.161V498.925h120.509c7.778 66.647 64.552 118.55 133.254 118.55s125.474-51.902 133.252-118.55h361.371v146.236z"/><path fill="#FFE000" d="M292.473 201.144v-5.713c0-7.126-5.775-12.903-12.901-12.905-7.126 0-12.903 5.776-12.903 12.902v5.717a101.53 101.53 0 0 0-68.977 40.693l22.24 13.433a75.7 75.7 0 0 1 46.734-28.002l-.002 17.54 6.231-3.764a12.91 12.91 0 0 1 13.342 0l6.233 3.764.001-17.54a75.68 75.68 0 0 1 46.739 28.002l22.24-13.432a101.52 101.52 0 0 0-68.977-40.695"/><path fill="#ED1F34" d="M279.57 592.666c-60.317 0-109.389-49.071-109.389-109.389V325.882h218.778v157.396c0 60.317-49.072 109.388-109.389 109.388m-26.523-106.963c4.224 3.492 8.911 6.103 13.933 7.76l.687.227v59.271c0 6.563 5.34 11.903 11.903 11.903s11.903-5.34 11.903-11.903V493.69l.687-.227c5.021-1.657 9.709-4.268 13.934-7.76l.521-.432 36.938 20.125a11.91 11.91 0 0 0 11.774-.22 11.95 11.95 0 0 0 5.824-10.233v-73.638c0-18.996-15.455-34.451-34.451-34.451-8.931 0-17.414 3.438-23.886 9.681l-1.639-1.049 6.271-17.989h5.724c6.563 0 11.903-5.34 11.903-11.903s-5.34-11.903-11.903-11.903h-14.18a11.91 11.91 0 0 0-11.24 7.985l-8.181 23.468-8.18-23.468a11.91 11.91 0 0 0-11.24-7.985h-14.18c-6.563 0-11.903 5.34-11.903 11.903s5.34 11.903 11.903 11.903h5.724l6.271 17.989-1.639 1.049c-6.472-6.243-14.955-9.681-23.885-9.681-18.997 0-34.451 15.455-34.451 34.451v73.638c0 4.178 2.232 8.099 5.825 10.234a11.91 11.91 0 0 0 11.773.219l36.938-20.125z"/><path fill="#ED1F34" d="M387.959 326.882H171.181v156.396c0 59.766 48.623 108.389 108.389 108.389s108.389-48.622 108.389-108.389zM362.15 494.943a12.902 12.902 0 0 1-19.076 11.332l-36.344-19.801c-3.792 3.135-8.583 6.066-14.257 7.938v58.548c0 7.126-5.777 12.903-12.903 12.903s-12.903-5.777-12.903-12.903v-58.548c-5.674-1.872-10.465-4.804-14.257-7.938l-36.344 19.801a12.9 12.9 0 0 1-12.762-.238 12.9 12.9 0 0 1-6.314-11.094v-73.638c0-19.548 15.904-35.451 35.451-35.451 9.543 0 18.2 3.808 24.58 9.961l-6.037-17.318h-5.014c-7.126 0-12.903-5.777-12.903-12.903s5.777-12.903 12.903-12.903h14.18a12.91 12.91 0 0 1 12.184 8.656l7.236 20.759 7.236-20.759a12.9 12.9 0 0 1 12.184-8.656h14.18c7.126 0 12.903 5.777 12.903 12.903s-5.777 12.903-12.903 12.903h-5.014l-6.037 17.318c6.38-6.154 15.037-9.961 24.58-9.961 19.548 0 35.451 15.903 35.451 35.451z"/><path fill="#FFF" d="M242.085 462.71v-41.406c0-5.317-4.327-9.645-9.645-9.645s-9.645 4.327-9.645 9.645v51.914zm94.259-41.406c0-5.317-4.326-9.645-9.645-9.645-5.317 0-9.645 4.327-9.645 9.645v41.406l19.289 10.508z"/><path d="M362.15 421.304c0-19.548-15.903-35.451-35.451-35.451-9.543 0-18.2 3.807-24.58 9.961l6.037-17.318h5.014c7.126 0 12.903-5.777 12.903-12.903s-5.777-12.903-12.903-12.903h-14.18a12.905 12.905 0 0 0-12.184 8.655l-7.236 20.759-7.236-20.759a12.9 12.9 0 0 0-12.184-8.655h-14.18c-7.126 0-12.903 5.777-12.903 12.903s5.777 12.903 12.903 12.903h5.014l6.037 17.318c-6.379-6.154-15.037-9.961-24.58-9.961-19.547 0-35.451 15.903-35.451 35.451v73.639a12.903 12.903 0 0 0 19.076 11.331l36.344-19.8c3.792 3.134 8.583 6.065 14.257 7.938v58.548c0 7.126 5.777 12.903 12.903 12.903s12.903-5.777 12.903-12.903v-58.55c5.674-1.872 10.465-4.804 14.257-7.938l36.344 19.8a12.9 12.9 0 0 0 12.763-.238 12.9 12.9 0 0 0 6.313-11.093zm-139.354 0c0-5.317 4.327-9.645 9.645-9.645s9.645 4.327 9.645 9.645v41.406l-19.289 10.508zm68.452 44.425c-2.231 2.146-6.195 4.949-11.678 4.949s-9.447-2.805-11.678-4.949v-31.521h23.356zm25.807-3.019v-41.406c0-5.317 4.327-9.645 9.645-9.645s9.645 4.327 9.645 9.645v51.914z"/><path fill="#ED1F34" d="M279.57 471.677c-5.733 0-9.892-2.844-12.372-5.229l-.307-.295v-32.946h25.356v32.946l-.307.295c-2.48 2.386-6.64 5.229-12.37 5.229"/><path fill="#ED1F34" d="M267.892 434.207v31.521c2.231 2.146 6.195 4.949 11.678 4.949s9.447-2.804 11.678-4.949v-31.521z"/><path fill="#FFE000" d="m215.956 302.075-6.757-24.308 19.284 11.648c1.855 1.122 3.983 1.714 6.152 1.714s4.298-.593 6.155-1.714l38.774-23.419 38.781 23.421a11.9 11.9 0 0 0 12.307 0l19.289-11.649-6.759 24.308H215.956z"/><path fill="#FFE000" d="m348.305 279.924-17.134 10.348a12.9 12.9 0 0 1-13.342 0l-38.264-23.108-38.257 23.107a12.9 12.9 0 0 1-13.342 0l-17.129-10.347 5.879 21.151h125.708z"/></svg>